<?xml version="1.0" encoding="utf-8"?>
<!-- Generator: Adobe Illustrator 19.0.0, SVG Export Plug-In . SVG Version: 6.00 Build 0)  -->
<svg version="1.1" id="Capa_1" xmlns="http://www.w3.org/2000/svg" xmlns:xlink="http://www.w3.org/1999/xlink" x="0px" y="0px"
	 width="192px" height="192px" viewBox="-415 289 192 192" style="enable-background:new -415 289 192 192;" xml:space="preserve">
<path d="M-246.8,322.4c-3.3-2.7-8.2-2.2-10.9,1L-345.5,430l-35.2-36.4c-3-3.1-7.9-3.2-10.9-0.2c-3.1,3-3.2,7.9-0.2,10.9l41.1,42.6
	c1.5,1.5,3.4,2.3,5.3,2.4c0.1,0,0.1,0,0.2,0c0.2,0,0.3,0,0.5,0h0.1c0.1,0,0.2,0,0.3,0c2-0.2,3.9-1.1,5.2-2.8l93.3-113.2
	C-243,330-243.5,325.2-246.8,322.4z"/>
</svg>
