<?xml version="1.0" encoding="utf-8"?>
<!-- Generator: Adobe Illustrator 19.0.0, SVG Export Plug-In . SVG Version: 6.00 Build 0)  -->
<svg version="1.1" id="Capa_1" xmlns="http://www.w3.org/2000/svg" xmlns:xlink="http://www.w3.org/1999/xlink" x="0px" y="0px"
	 width="192px" height="192px" viewBox="-158.6 288.6 192 192" style="enable-background:new -158.6 288.6 192 192;"
	 xml:space="preserve">
<path d="M-48.9,384.6l58.4-58.1c3.8-3.8,3.8-9.9,0-13.7c-3.8-3.8-9.9-3.8-13.7,0l-58.4,58.1l-58.1-58.4c-3.8-3.8-9.9-3.8-13.7,0
	c-1.9,1.9-2.8,4.4-2.9,6.8c0,2.5,0.9,5,2.8,6.9l58.1,58.4l-58.4,58.1c-3.8,3.8-3.8,9.9,0,13.7c1.9,1.9,4.4,2.8,6.8,2.9
	c2.5,0,5-0.9,6.9-2.8l58.4-58.1l58.1,58.4c3.8,3.8,9.9,3.8,13.7,0c3.8-3.8,3.8-9.9,0-13.7L-48.9,384.6z"/>
</svg>
