<?xml version="1.0" encoding="utf-8"?>
<!-- Generator: Adobe Illustrator 19.0.0, SVG Export Plug-In . SVG Version: 6.00 Build 0)  -->
<svg version="1.1" id="Capa_1" xmlns="http://www.w3.org/2000/svg" xmlns:xlink="http://www.w3.org/1999/xlink" x="0px" y="0px"
	 width="192px" height="192px" viewBox="-415 289 192 192" style="enable-background:new -415 289 192 192;" xml:space="preserve">
<path d="M-248.7,389.6l4.7-4.7l-4.7-4.7l0,0l-66.9-66.9c-2.6-2.6-6.8-2.6-9.5,0c-2.6,2.6-2.6,6.9,0,9.5l55.5,55.5h-117.7
	c-3.7,0-6.7,3-6.7,6.7s3,6.7,6.7,6.7h117.7l-55.5,55.5c-2.6,2.6-2.6,6.9,0,9.5c1.3,1.3,3,2,4.7,2c1.7,0,3.4-0.7,4.7-2L-248.7,389.6
	L-248.7,389.6z"/>
</svg>
