<?xml version="1.0" encoding="utf-8"?>
<!-- Generator: Adobe Illustrator 19.0.0, SVG Export Plug-In . SVG Version: 6.00 Build 0)  -->
<svg version="1.1" id="Capa_1" xmlns="http://www.w3.org/2000/svg" xmlns:xlink="http://www.w3.org/1999/xlink" x="0px" y="0px"
	 width="192px" height="192px" viewBox="-158.6 288.6 192 192" style="enable-background:new -158.6 288.6 192 192;"
	 xml:space="preserve">
<style type="text/css">
	.st0{fill-rule:evenodd;clip-rule:evenodd;}
</style>
<g id="XMLID_74_">
	<path id="XMLID_75_" class="st0" d="M9.7,439.1l-26.3-26.3c-1.7-1.7-4-2.7-6.5-2.7c-2.4,0-4.7,0.9-6.4,2.6l-8.4-8.4
		c9-10.1,14.4-23.4,14.4-37.9c0-31.5-25.6-57.1-57.1-57.1s-57.1,25.6-57.1,57.1s25.6,57.1,57.1,57.1c14.6,0,27.9-5.5,38-14.5
		l8.4,8.4l-0.6,0.6c-1.7,1.7-2.7,4-2.7,6.5c0,2.5,1,4.8,2.7,6.5l26.3,26.3c1.8,1.8,4.1,2.7,6.5,2.7s4.7-0.9,6.5-2.7l5.2-5.2
		C13.3,448.5,13.3,442.7,9.7,439.1 M-80.5,416.9c-27.9,0-50.5-22.7-50.5-50.5s22.7-50.5,50.5-50.5S-30,338.5-30,366.4
		S-52.6,416.9-80.5,416.9 M5.1,447.4l-5.2,5.2c-1,1-2.7,1-3.7,0l-26.3-26.3c-0.5-0.5-0.8-1.1-0.8-1.8s0.3-1.3,0.8-1.8l3-3h0
		c0,0,0,0,0,0l2.2-2.2c0.5-0.5,1.1-0.8,1.8-0.8c0.7,0,1.3,0.3,1.8,0.8l26.3,26.3C6.1,444.8,6.1,446.4,5.1,447.4"/>
</g>
</svg>
